<svg width="1280" height="720" viewBox="0 0 1280 720" fill="none" xmlns="http://www.w3.org/2000/svg">
<rect width="1280" height="720" rx="20" fill="#141618"/>
<rect x="239" y="90" width="993" height="582" rx="8" fill="#1C2025" stroke="url(#paint0_linear_82_3)" stroke-width="4"/>
<line x1="209.5" x2="209.5" y2="720" stroke="#2D343F"/>
<line x1="24" y1="87.5" x2="185" y2="87.5" stroke="#2D343F"/>
<path d="M946.239 51H945.059L944.094 48.4482H940.234L939.327 51H938.14L941.631 41.8975H942.735L946.239 51ZM943.745 47.4897L942.316 43.6113C942.27 43.4844 942.223 43.2812 942.177 43.002H942.151C942.109 43.2601 942.06 43.4632 942.005 43.6113L940.59 47.4897H943.745ZM954.923 51H953.615L948.931 43.7446C948.812 43.5627 948.715 43.3722 948.639 43.1733H948.601C948.634 43.368 948.651 43.7848 948.651 44.4238V51H947.585V41.8975H948.969L953.526 49.0386C953.717 49.3348 953.84 49.5379 953.895 49.6479H953.92C953.878 49.3856 953.856 48.9391 953.856 48.3086V41.8975H954.923V51ZM964.355 51H963.175L962.21 48.4482H958.351L957.443 51H956.256L959.747 41.8975H960.852L964.355 51ZM961.861 47.4897L960.433 43.6113C960.386 43.4844 960.34 43.2812 960.293 43.002H960.268C960.225 43.2601 960.177 43.4632 960.122 43.6113L958.706 47.4897H961.861ZM961.62 38.9775L959.957 41.0596H959.15L960.566 38.9775H961.62ZM970.424 51H965.701V41.8975H966.768V50.0352H970.424V51ZM972.887 51H971.82V41.8975H972.887V51ZM974.861 50.6318V49.375C975.005 49.502 975.176 49.6162 975.375 49.7178C975.578 49.8193 975.79 49.9061 976.01 49.978C976.234 50.0457 976.458 50.0986 976.683 50.1367C976.907 50.1748 977.114 50.1938 977.305 50.1938C977.961 50.1938 978.449 50.0732 978.771 49.832C979.097 49.5866 979.26 49.2354 979.26 48.7783C979.26 48.5329 979.205 48.3192 979.095 48.1372C978.989 47.9552 978.841 47.7902 978.65 47.6421C978.46 47.4897 978.234 47.3459 977.971 47.2104C977.713 47.0708 977.434 46.9248 977.133 46.7725C976.816 46.6117 976.52 46.4487 976.245 46.2837C975.97 46.1187 975.73 45.9367 975.527 45.7378C975.324 45.5389 975.163 45.3146 975.045 45.0649C974.931 44.811 974.874 44.5148 974.874 44.1763C974.874 43.7616 974.965 43.4019 975.146 43.0972C975.328 42.7882 975.568 42.5343 975.864 42.3354C976.16 42.1366 976.496 41.9884 976.873 41.8911C977.254 41.7938 977.641 41.7451 978.035 41.7451C978.932 41.7451 979.586 41.853 979.996 42.0688V43.2686C979.459 42.8962 978.769 42.71 977.927 42.71C977.694 42.71 977.461 42.7354 977.229 42.7861C976.996 42.8327 976.788 42.911 976.606 43.021C976.424 43.131 976.276 43.2728 976.162 43.4463C976.048 43.6198 975.991 43.8314 975.991 44.0811C975.991 44.3138 976.033 44.5148 976.118 44.6841C976.207 44.8534 976.336 45.0078 976.505 45.1475C976.674 45.2871 976.879 45.4225 977.121 45.5537C977.366 45.6849 977.647 45.8288 977.965 45.9854C978.291 46.1462 978.6 46.3154 978.892 46.4932C979.184 46.6709 979.44 46.8677 979.66 47.0835C979.88 47.2993 980.053 47.5384 980.18 47.8008C980.311 48.0632 980.377 48.3636 980.377 48.7021C980.377 49.1507 980.288 49.5316 980.11 49.8447C979.937 50.1536 979.7 50.4054 979.399 50.6001C979.103 50.7948 978.76 50.9344 978.371 51.019C977.982 51.1079 977.571 51.1523 977.14 51.1523C976.996 51.1523 976.818 51.1396 976.606 51.1143C976.395 51.0931 976.179 51.0592 975.959 51.0127C975.739 50.9704 975.529 50.9175 975.331 50.854C975.136 50.7863 974.979 50.7122 974.861 50.6318ZM987.017 51H982.192V41.8975H986.813V42.8623H983.259V45.8901H986.547V46.8486H983.259V50.0352H987.017V51ZM991.79 50.6509V48.6196C992.158 48.9285 992.558 49.1613 992.99 49.3179C993.421 49.4702 993.857 49.5464 994.297 49.5464C994.556 49.5464 994.78 49.5231 994.97 49.4766C995.165 49.43 995.326 49.3665 995.453 49.2861C995.584 49.2015 995.681 49.1042 995.745 48.9941C995.808 48.8799 995.84 48.7572 995.84 48.626C995.84 48.4482 995.789 48.2896 995.688 48.1499C995.586 48.0103 995.446 47.8812 995.269 47.7627C995.095 47.6442 994.888 47.5299 994.646 47.4199C994.405 47.3099 994.145 47.1978 993.866 47.0835C993.155 46.7873 992.624 46.4255 992.272 45.998C991.925 45.5706 991.752 45.0544 991.752 44.4492C991.752 43.9753 991.847 43.569 992.038 43.2305C992.228 42.8877 992.486 42.6063 992.812 42.3862C993.142 42.1662 993.523 42.0054 993.955 41.9038C994.386 41.798 994.843 41.7451 995.326 41.7451C995.8 41.7451 996.219 41.7747 996.583 41.834C996.951 41.889 997.289 41.9757 997.598 42.0942V43.9922C997.446 43.8864 997.279 43.7933 997.097 43.7129C996.919 43.6325 996.735 43.5669 996.544 43.5161C996.354 43.4611 996.164 43.4209 995.973 43.3955C995.787 43.3701 995.609 43.3574 995.44 43.3574C995.207 43.3574 994.996 43.3807 994.805 43.4272C994.615 43.4696 994.454 43.5309 994.323 43.6113C994.192 43.6917 994.09 43.7891 994.018 43.9033C993.946 44.0133 993.91 44.1382 993.91 44.2778C993.91 44.4302 993.95 44.5677 994.031 44.6904C994.111 44.8089 994.225 44.9232 994.374 45.0332C994.522 45.139 994.701 45.2448 994.913 45.3506C995.125 45.4521 995.364 45.5579 995.63 45.668C995.994 45.8203 996.32 45.9832 996.608 46.1567C996.9 46.326 997.15 46.5186 997.357 46.7344C997.564 46.9502 997.723 47.1978 997.833 47.4771C997.943 47.7521 997.998 48.0737 997.998 48.4419C997.998 48.9497 997.901 49.3771 997.706 49.7241C997.516 50.0669 997.255 50.3462 996.925 50.562C996.595 50.7736 996.21 50.9259 995.77 51.019C995.334 51.1121 994.873 51.1587 994.386 51.1587C993.887 51.1587 993.411 51.1164 992.958 51.0317C992.509 50.9471 992.12 50.8201 991.79 50.6509ZM1004.96 51H999.496V41.8975H1004.75V43.5669H1001.55V45.5918H1004.52V47.2549H1001.55V49.3369H1004.96V51ZM1011.84 51H1006.42V41.8975H1008.47V49.3369H1011.84V51ZM1018.53 51H1013.07V41.8975H1018.32V43.5669H1015.12V45.5918H1018.09V47.2549H1015.12V49.3369H1018.53V51ZM1026.51 50.6763C1025.85 50.9979 1024.98 51.1587 1023.91 51.1587C1022.51 51.1587 1021.41 50.7482 1020.61 49.9272C1019.81 49.1063 1019.42 48.0124 1019.42 46.6455C1019.42 45.1898 1019.86 44.0091 1020.76 43.1035C1021.66 42.1979 1022.83 41.7451 1024.26 41.7451C1025.15 41.7451 1025.9 41.8573 1026.51 42.0815V44.0557C1025.9 43.6917 1025.21 43.5098 1024.43 43.5098C1023.57 43.5098 1022.89 43.7785 1022.36 44.3159C1021.84 44.8534 1021.57 45.5812 1021.57 46.4995C1021.57 47.3797 1021.82 48.0822 1022.32 48.6069C1022.81 49.1274 1023.48 49.3877 1024.32 49.3877C1025.12 49.3877 1025.85 49.193 1026.51 48.8037V50.6763ZM1030.15 51H1028.1V41.8975H1030.15V51ZM1036.07 51.1587C1034.77 51.1587 1033.71 50.7355 1032.88 49.8892C1032.06 49.0386 1031.65 47.932 1031.65 46.5693C1031.65 45.1305 1032.07 43.9668 1032.9 43.0781C1033.74 42.1895 1034.84 41.7451 1036.22 41.7451C1037.52 41.7451 1038.57 42.1704 1039.37 43.021C1040.17 43.8716 1040.57 44.993 1040.57 46.3853C1040.57 47.8156 1040.15 48.9688 1039.32 49.8447C1038.49 50.7207 1037.41 51.1587 1036.07 51.1587ZM1036.16 43.5098C1035.44 43.5098 1034.87 43.7806 1034.45 44.3223C1034.02 44.8597 1033.81 45.5728 1033.81 46.4614C1033.81 47.3628 1034.02 48.0758 1034.45 48.6006C1034.87 49.1253 1035.42 49.3877 1036.11 49.3877C1036.82 49.3877 1037.38 49.1338 1037.79 48.626C1038.21 48.1139 1038.41 47.4051 1038.41 46.4995C1038.41 45.5558 1038.21 44.8216 1037.81 44.2969C1037.41 43.7721 1036.86 43.5098 1036.16 43.5098ZM1050.28 51H1048.21L1044.46 45.2808C1044.24 44.9465 1044.08 44.6947 1044 44.5254H1043.97C1044.01 44.847 1044.02 45.3379 1044.02 45.998V51H1042.09V41.8975H1044.3L1047.91 47.439C1048.07 47.6886 1048.23 47.9362 1048.37 48.1816H1048.39C1048.36 47.9701 1048.34 47.5532 1048.34 46.9312V41.8975H1050.28V51ZM1060.36 51H1058.13L1057.48 48.9751H1054.24L1053.6 51H1051.38L1054.7 41.8975H1057.13L1060.36 51ZM1057.01 47.4009L1056.03 44.3413C1055.96 44.1128 1055.91 43.8398 1055.88 43.5225H1055.83C1055.81 43.7891 1055.76 44.0535 1055.67 44.3159L1054.68 47.4009H1057.01ZM1061.5 51V41.8975H1064.72C1067.96 41.8975 1069.57 43.3765 1069.57 46.3345C1069.57 47.7521 1069.13 48.8841 1068.25 49.7305C1067.37 50.5768 1066.19 51 1064.72 51H1061.5ZM1063.55 43.5669V49.3369H1064.57C1065.45 49.3369 1066.15 49.0703 1066.65 48.5371C1067.16 48.0039 1067.42 47.2782 1067.42 46.3599C1067.42 45.4924 1067.16 44.811 1066.66 44.3159C1066.16 43.8166 1065.46 43.5669 1064.55 43.5669H1063.55ZM1078.89 51H1076.65L1076 48.9751H1072.77L1072.13 51H1069.9L1073.22 41.8975H1075.65L1078.89 51ZM1075.53 47.4009L1074.56 44.3413C1074.49 44.1128 1074.43 43.8398 1074.4 43.5225H1074.35C1074.33 43.7891 1074.28 44.0535 1074.2 44.3159L1073.21 47.4009H1075.53ZM1080.72 46.5122C1080.39 46.5122 1080.12 46.4128 1079.9 46.2139C1079.68 46.0107 1079.57 45.7611 1079.57 45.4648C1079.57 45.1602 1079.68 44.9105 1079.9 44.7158C1080.13 44.5212 1080.41 44.4238 1080.75 44.4238C1081.1 44.4238 1081.37 44.5233 1081.59 44.7222C1081.81 44.9168 1081.92 45.1644 1081.92 45.4648C1081.92 45.7738 1081.81 46.0256 1081.58 46.2202C1081.36 46.4149 1081.08 46.5122 1080.72 46.5122ZM1080.72 51.1587C1080.39 51.1587 1080.12 51.0571 1079.9 50.854C1079.68 50.6509 1079.57 50.4012 1079.57 50.105C1079.57 49.8003 1079.68 49.5506 1079.9 49.356C1080.13 49.1613 1080.41 49.064 1080.75 49.064C1081.1 49.064 1081.37 49.1634 1081.59 49.3623C1081.81 49.557 1081.92 49.8045 1081.92 50.105C1081.92 50.4139 1081.81 50.6678 1081.58 50.8667C1081.36 51.0614 1081.08 51.1587 1080.72 51.1587Z" fill="white"/>
<path d="M56.584 125.6C57.312 125.6 57.944 125.72 58.48 125.96C59.024 126.2 59.44 126.544 59.728 126.992C60.016 127.44 60.16 127.972 60.16 128.588C60.16 129.196 60.016 129.728 59.728 130.184C59.44 130.632 59.024 130.976 58.48 131.216C57.944 131.456 57.312 131.576 56.584 131.576H54.688V134H53.128V125.6H56.584ZM56.512 130.256C57.192 130.256 57.708 130.112 58.06 129.824C58.412 129.536 58.588 129.124 58.588 128.588C58.588 128.052 58.412 127.64 58.06 127.352C57.708 127.064 57.192 126.92 56.512 126.92H54.688V130.256H56.512ZM67.5744 130.832C67.5744 130.936 67.5664 131.084 67.5504 131.276H62.5224C62.6104 131.748 62.8384 132.124 63.2064 132.404C63.5824 132.676 64.0464 132.812 64.5984 132.812C65.3024 132.812 65.8824 132.58 66.3384 132.116L67.1424 133.04C66.8544 133.384 66.4904 133.644 66.0504 133.82C65.6104 133.996 65.1144 134.084 64.5624 134.084C63.8584 134.084 63.2384 133.944 62.7024 133.664C62.1664 133.384 61.7504 132.996 61.4544 132.5C61.1664 131.996 61.0224 131.428 61.0224 130.796C61.0224 130.172 61.1624 129.612 61.4424 129.116C61.7304 128.612 62.1264 128.22 62.6304 127.94C63.1344 127.66 63.7024 127.52 64.3344 127.52C64.9584 127.52 65.5144 127.66 66.0024 127.94C66.4984 128.212 66.8824 128.6 67.1544 129.104C67.4344 129.6 67.5744 130.176 67.5744 130.832ZM64.3344 128.72C63.8544 128.72 63.4464 128.864 63.1104 129.152C62.7824 129.432 62.5824 129.808 62.5104 130.28H66.1464C66.0824 129.816 65.8864 129.44 65.5584 129.152C65.2304 128.864 64.8224 128.72 64.3344 128.72ZM70.4433 128.528C70.8753 127.856 71.6353 127.52 72.7233 127.52V128.948C72.5953 128.924 72.4793 128.912 72.3753 128.912C71.7913 128.912 71.3353 129.084 71.0073 129.428C70.6793 129.764 70.5153 130.252 70.5153 130.892V134H69.0153V127.592H70.4433V128.528ZM76.6583 126.224C76.0263 126.224 75.7103 126.568 75.7103 127.256V127.64H77.4743V128.84H75.7583V134H74.2583V128.84H73.2023V127.64H74.2583V127.232C74.2583 126.544 74.4583 126.004 74.8583 125.612C75.2583 125.212 75.8223 125.012 76.5503 125.012C77.1263 125.012 77.5783 125.128 77.9063 125.36L77.4863 126.488C77.2303 126.312 76.9543 126.224 76.6583 126.224ZM81.2703 134.084C80.6223 134.084 80.0383 133.944 79.5183 133.664C78.9983 133.384 78.5903 132.996 78.2943 132.5C78.0063 131.996 77.8623 131.428 77.8623 130.796C77.8623 130.164 78.0063 129.6 78.2943 129.104C78.5903 128.608 78.9983 128.22 79.5183 127.94C80.0383 127.66 80.6223 127.52 81.2703 127.52C81.9263 127.52 82.5143 127.66 83.0343 127.94C83.5543 128.22 83.9583 128.608 84.2463 129.104C84.5423 129.6 84.6903 130.164 84.6903 130.796C84.6903 131.428 84.5423 131.996 84.2463 132.5C83.9583 132.996 83.5543 133.384 83.0343 133.664C82.5143 133.944 81.9263 134.084 81.2703 134.084ZM81.2703 132.8C81.8223 132.8 82.2783 132.616 82.6383 132.248C82.9983 131.88 83.1783 131.396 83.1783 130.796C83.1783 130.196 82.9983 129.712 82.6383 129.344C82.2783 128.976 81.8223 128.792 81.2703 128.792C80.7183 128.792 80.2623 128.976 79.9023 129.344C79.5503 129.712 79.3743 130.196 79.3743 130.796C79.3743 131.396 79.5503 131.88 79.9023 132.248C80.2623 132.616 80.7183 132.8 81.2703 132.8ZM87.5526 128.528C87.9846 127.856 88.7446 127.52 89.8326 127.52V128.948C89.7046 128.924 89.5886 128.912 89.4846 128.912C88.9006 128.912 88.4446 129.084 88.1166 129.428C87.7886 129.764 87.6246 130.252 87.6246 130.892V134H86.1246V127.592H87.5526V128.528ZM99.1931 127.52C100.001 127.52 100.641 127.756 101.113 128.228C101.585 128.692 101.821 129.392 101.821 130.328V134H100.321V130.52C100.321 129.96 100.197 129.54 99.9491 129.26C99.7011 128.972 99.3451 128.828 98.8811 128.828C98.3771 128.828 97.9731 128.996 97.6691 129.332C97.3651 129.66 97.2131 130.132 97.2131 130.748V134H95.7131V130.52C95.7131 129.96 95.5891 129.54 95.3411 129.26C95.0931 128.972 94.7371 128.828 94.2731 128.828C93.7611 128.828 93.3531 128.992 93.0491 129.32C92.7531 129.648 92.6051 130.124 92.6051 130.748V134H91.1051V127.592H92.5331V128.408C92.7731 128.12 93.0731 127.9 93.4331 127.748C93.7931 127.596 94.1931 127.52 94.6331 127.52C95.1131 127.52 95.5371 127.612 95.9051 127.796C96.2811 127.972 96.5771 128.236 96.7931 128.588C97.0571 128.252 97.3971 127.992 97.8131 127.808C98.2291 127.616 98.6891 127.52 99.1931 127.52ZM106.186 127.52C107.13 127.52 107.85 127.748 108.346 128.204C108.85 128.652 109.102 129.332 109.102 130.244V134H107.686V133.22C107.502 133.5 107.238 133.716 106.894 133.868C106.558 134.012 106.15 134.084 105.67 134.084C105.19 134.084 104.77 134.004 104.41 133.844C104.05 133.676 103.77 133.448 103.57 133.16C103.378 132.864 103.282 132.532 103.282 132.164C103.282 131.588 103.494 131.128 103.918 130.784C104.35 130.432 105.026 130.256 105.946 130.256H107.602V130.16C107.602 129.712 107.466 129.368 107.194 129.128C106.93 128.888 106.534 128.768 106.006 128.768C105.646 128.768 105.29 128.824 104.938 128.936C104.594 129.048 104.302 129.204 104.062 129.404L103.474 128.312C103.81 128.056 104.214 127.86 104.686 127.724C105.158 127.588 105.658 127.52 106.186 127.52ZM105.982 132.992C106.358 132.992 106.69 132.908 106.978 132.74C107.274 132.564 107.482 132.316 107.602 131.996V131.252H106.054C105.19 131.252 104.758 131.536 104.758 132.104C104.758 132.376 104.866 132.592 105.082 132.752C105.298 132.912 105.598 132.992 105.982 132.992ZM114.663 127.52C115.471 127.52 116.119 127.756 116.607 128.228C117.095 128.7 117.339 129.4 117.339 130.328V134H115.839V130.52C115.839 129.96 115.707 129.54 115.443 129.26C115.179 128.972 114.803 128.828 114.315 128.828C113.763 128.828 113.327 128.996 113.007 129.332C112.687 129.66 112.527 130.136 112.527 130.76V134H111.027V127.592H112.455V128.42C112.703 128.124 113.015 127.9 113.391 127.748C113.767 127.596 114.191 127.52 114.663 127.52ZM122.24 134.084C121.576 134.084 120.98 133.944 120.452 133.664C119.924 133.384 119.512 132.996 119.216 132.5C118.92 131.996 118.772 131.428 118.772 130.796C118.772 130.164 118.92 129.6 119.216 129.104C119.512 128.608 119.92 128.22 120.44 127.94C120.968 127.66 121.568 127.52 122.24 127.52C122.872 127.52 123.424 127.648 123.896 127.904C124.376 128.16 124.736 128.528 124.976 129.008L123.824 129.68C123.64 129.384 123.408 129.164 123.128 129.02C122.856 128.868 122.556 128.792 122.228 128.792C121.668 128.792 121.204 128.976 120.836 129.344C120.468 129.704 120.284 130.188 120.284 130.796C120.284 131.404 120.464 131.892 120.824 132.26C121.192 132.62 121.66 132.8 122.228 132.8C122.556 132.8 122.856 132.728 123.128 132.584C123.408 132.432 123.64 132.208 123.824 131.912L124.976 132.584C124.728 133.064 124.364 133.436 123.884 133.7C123.412 133.956 122.864 134.084 122.24 134.084ZM132.203 130.832C132.203 130.936 132.195 131.084 132.179 131.276H127.151C127.239 131.748 127.467 132.124 127.835 132.404C128.211 132.676 128.675 132.812 129.227 132.812C129.931 132.812 130.511 132.58 130.967 132.116L131.771 133.04C131.483 133.384 131.119 133.644 130.679 133.82C130.239 133.996 129.743 134.084 129.191 134.084C128.487 134.084 127.867 133.944 127.331 133.664C126.795 133.384 126.379 132.996 126.083 132.5C125.795 131.996 125.651 131.428 125.651 130.796C125.651 130.172 125.791 129.612 126.071 129.116C126.359 128.612 126.755 128.22 127.259 127.94C127.763 127.66 128.331 127.52 128.963 127.52C129.587 127.52 130.143 127.66 130.631 127.94C131.127 128.212 131.511 128.6 131.783 129.104C132.063 129.6 132.203 130.176 132.203 130.832ZM128.963 128.72C128.483 128.72 128.075 128.864 127.739 129.152C127.411 129.432 127.211 129.808 127.139 130.28H130.775C130.711 129.816 130.515 129.44 130.187 129.152C129.859 128.864 129.451 128.72 128.963 128.72Z" fill="#2A303A"/>
<path d="M43.7617 126.569V127.597H41.7066V126.569H43.7617ZM38.6239 126.569V129.652H36.5688V126.569H38.6239ZM43.7617 130.68V133.762H41.7066V130.68H43.7617ZM38.6239 132.735V133.762H36.5688V132.735H38.6239ZM44.7893 125.542H40.679V128.624H44.7893V125.542ZM39.6515 125.542H35.5413V130.68H39.6515V125.542ZM44.7893 129.652H40.679V134.79H44.7893V129.652ZM39.6515 131.707H35.5413V134.79H39.6515V131.707Z" fill="#2A303A"/>
<rect x="24" y="170" width="161" height="39" rx="3" fill="#6B12B9" fill-opacity="0.5"/>
<path d="M35.3333 191.333C36.0697 191.333 36.6667 190.736 36.6667 190C36.6667 189.264 36.0697 188.667 35.3333 188.667C34.597 188.667 34 189.264 34 190C34 190.736 34.597 191.333 35.3333 191.333Z" stroke="white"/>
<path d="M44.6667 186.667C45.4031 186.667 46 186.07 46 185.333C46 184.597 45.4031 184 44.6667 184C43.9303 184 43.3334 184.597 43.3334 185.333C43.3334 186.07 43.9303 186.667 44.6667 186.667Z" stroke="white"/>
<path d="M44.6667 191.333C45.4031 191.333 46 190.736 46 190C46 189.264 45.4031 188.667 44.6667 188.667C43.9303 188.667 43.3334 189.264 43.3334 190C43.3334 190.736 43.9303 191.333 44.6667 191.333Z" stroke="white"/>
<path d="M44.6667 196C45.4031 196 46 195.403 46 194.667C46 193.93 45.4031 193.333 44.6667 193.333C43.9303 193.333 43.3334 193.93 43.3334 194.667C43.3334 195.403 43.9303 196 44.6667 196Z" stroke="white"/>
<path d="M43.3333 194.667H39.3333V185.333H43.3333" stroke="white" stroke-linecap="round" stroke-linejoin="round"/>
<path d="M36.6666 190H43.3333" stroke="white" stroke-linecap="round" stroke-linejoin="round"/>
<path d="M53.128 185.6H56.8C57.696 185.6 58.492 185.776 59.188 186.128C59.884 186.472 60.424 186.964 60.808 187.604C61.192 188.236 61.384 188.968 61.384 189.8C61.384 190.632 61.192 191.368 60.808 192.008C60.424 192.64 59.884 193.132 59.188 193.484C58.492 193.828 57.696 194 56.8 194H53.128V185.6ZM56.728 192.68C57.344 192.68 57.884 192.564 58.348 192.332C58.82 192.092 59.18 191.756 59.428 191.324C59.684 190.884 59.812 190.376 59.812 189.8C59.812 189.224 59.684 188.72 59.428 188.288C59.18 187.848 58.82 187.512 58.348 187.28C57.884 187.04 57.344 186.92 56.728 186.92H54.688V192.68H56.728ZM68.9221 190.832C68.9221 190.936 68.9141 191.084 68.8981 191.276H63.8701C63.9581 191.748 64.1861 192.124 64.5541 192.404C64.9301 192.676 65.3941 192.812 65.9461 192.812C66.6501 192.812 67.2301 192.58 67.6861 192.116L68.4901 193.04C68.2021 193.384 67.8381 193.644 67.3981 193.82C66.9581 193.996 66.4621 194.084 65.9101 194.084C65.2061 194.084 64.5861 193.944 64.0501 193.664C63.5141 193.384 63.0981 192.996 62.8021 192.5C62.5141 191.996 62.3701 191.428 62.3701 190.796C62.3701 190.172 62.5101 189.612 62.7901 189.116C63.0781 188.612 63.4741 188.22 63.9781 187.94C64.4821 187.66 65.0501 187.52 65.6821 187.52C66.3061 187.52 66.8621 187.66 67.3501 187.94C67.8461 188.212 68.2301 188.6 68.5021 189.104C68.7821 189.6 68.9221 190.176 68.9221 190.832ZM65.6821 188.72C65.2021 188.72 64.7941 188.864 64.4581 189.152C64.1301 189.432 63.9301 189.808 63.8581 190.28H67.4941C67.4301 189.816 67.2341 189.44 66.9061 189.152C66.5781 188.864 66.1701 188.72 65.6821 188.72ZM73.3029 194.084C72.6389 194.084 72.0429 193.944 71.5149 193.664C70.9869 193.384 70.5749 192.996 70.2789 192.5C69.9829 191.996 69.8349 191.428 69.8349 190.796C69.8349 190.164 69.9829 189.6 70.2789 189.104C70.5749 188.608 70.9829 188.22 71.5029 187.94C72.0309 187.66 72.6309 187.52 73.3029 187.52C73.9349 187.52 74.4869 187.648 74.9589 187.904C75.4389 188.16 75.7989 188.528 76.0389 189.008L74.8869 189.68C74.7029 189.384 74.4709 189.164 74.1909 189.02C73.9189 188.868 73.6189 188.792 73.2909 188.792C72.7309 188.792 72.2669 188.976 71.8989 189.344C71.5309 189.704 71.3469 190.188 71.3469 190.796C71.3469 191.404 71.5269 191.892 71.8869 192.26C72.2549 192.62 72.7229 192.8 73.2909 192.8C73.6189 192.8 73.9189 192.728 74.1909 192.584C74.4709 192.432 74.7029 192.208 74.8869 191.912L76.0389 192.584C75.7909 193.064 75.4269 193.436 74.9469 193.7C74.4749 193.956 73.9269 194.084 73.3029 194.084ZM80.1218 194.084C79.4738 194.084 78.8898 193.944 78.3698 193.664C77.8498 193.384 77.4418 192.996 77.1458 192.5C76.8578 191.996 76.7138 191.428 76.7138 190.796C76.7138 190.164 76.8578 189.6 77.1458 189.104C77.4418 188.608 77.8498 188.22 78.3698 187.94C78.8898 187.66 79.4738 187.52 80.1218 187.52C80.7778 187.52 81.3658 187.66 81.8858 187.94C82.4058 188.22 82.8098 188.608 83.0978 189.104C83.3938 189.6 83.5418 190.164 83.5418 190.796C83.5418 191.428 83.3938 191.996 83.0978 192.5C82.8098 192.996 82.4058 193.384 81.8858 193.664C81.3658 193.944 80.7778 194.084 80.1218 194.084ZM80.1218 192.8C80.6738 192.8 81.1298 192.616 81.4898 192.248C81.8498 191.88 82.0298 191.396 82.0298 190.796C82.0298 190.196 81.8498 189.712 81.4898 189.344C81.1298 188.976 80.6738 188.792 80.1218 188.792C79.5698 188.792 79.1138 188.976 78.7538 189.344C78.4018 189.712 78.2258 190.196 78.2258 190.796C78.2258 191.396 78.4018 191.88 78.7538 192.248C79.1138 192.616 79.5698 192.8 80.1218 192.8ZM93.0642 187.52C93.8722 187.52 94.5122 187.756 94.9842 188.228C95.4562 188.692 95.6922 189.392 95.6922 190.328V194H94.1922V190.52C94.1922 189.96 94.0682 189.54 93.8202 189.26C93.5722 188.972 93.2162 188.828 92.7522 188.828C92.2482 188.828 91.8442 188.996 91.5402 189.332C91.2362 189.66 91.0842 190.132 91.0842 190.748V194H89.5842V190.52C89.5842 189.96 89.4602 189.54 89.2122 189.26C88.9642 188.972 88.6082 188.828 88.1442 188.828C87.6322 188.828 87.2242 188.992 86.9202 189.32C86.6242 189.648 86.4762 190.124 86.4762 190.748V194H84.9762V187.592H86.4042V188.408C86.6442 188.12 86.9442 187.9 87.3042 187.748C87.6642 187.596 88.0642 187.52 88.5042 187.52C88.9842 187.52 89.4082 187.612 89.7762 187.796C90.1522 187.972 90.4482 188.236 90.6642 188.588C90.9282 188.252 91.2682 187.992 91.6842 187.808C92.1002 187.616 92.5602 187.52 93.0642 187.52ZM101.161 187.52C101.785 187.52 102.341 187.656 102.829 187.928C103.325 188.2 103.713 188.584 103.993 189.08C104.273 189.576 104.413 190.148 104.413 190.796C104.413 191.444 104.273 192.02 103.993 192.524C103.713 193.02 103.325 193.404 102.829 193.676C102.341 193.948 101.785 194.084 101.161 194.084C100.297 194.084 99.613 193.796 99.109 193.22V196.328H97.609V187.592H99.037V188.432C99.285 188.128 99.589 187.9 99.949 187.748C100.317 187.596 100.721 187.52 101.161 187.52ZM100.993 192.8C101.545 192.8 101.997 192.616 102.349 192.248C102.709 191.88 102.889 191.396 102.889 190.796C102.889 190.196 102.709 189.712 102.349 189.344C101.997 188.976 101.545 188.792 100.993 188.792C100.633 188.792 100.309 188.876 100.021 189.044C99.733 189.204 99.505 189.436 99.337 189.74C99.169 190.044 99.085 190.396 99.085 190.796C99.085 191.196 99.169 191.548 99.337 191.852C99.505 192.156 99.733 192.392 100.021 192.56C100.309 192.72 100.633 192.8 100.993 192.8ZM108.716 194.084C108.068 194.084 107.484 193.944 106.964 193.664C106.444 193.384 106.036 192.996 105.74 192.5C105.452 191.996 105.308 191.428 105.308 190.796C105.308 190.164 105.452 189.6 105.74 189.104C106.036 188.608 106.444 188.22 106.964 187.94C107.484 187.66 108.068 187.52 108.716 187.52C109.372 187.52 109.96 187.66 110.48 187.94C111 188.22 111.404 188.608 111.692 189.104C111.988 189.6 112.136 190.164 112.136 190.796C112.136 191.428 111.988 191.996 111.692 192.5C111.404 192.996 111 193.384 110.48 193.664C109.96 193.944 109.372 194.084 108.716 194.084ZM108.716 192.8C109.268 192.8 109.724 192.616 110.084 192.248C110.444 191.88 110.624 191.396 110.624 190.796C110.624 190.196 110.444 189.712 110.084 189.344C109.724 188.976 109.268 188.792 108.716 188.792C108.164 188.792 107.708 188.976 107.348 189.344C106.996 189.712 106.82 190.196 106.82 190.796C106.82 191.396 106.996 191.88 107.348 192.248C107.708 192.616 108.164 192.8 108.716 192.8ZM115.55 194.084C115.03 194.084 114.522 194.016 114.026 193.88C113.53 193.744 113.134 193.572 112.838 193.364L113.414 192.224C113.702 192.416 114.046 192.572 114.446 192.692C114.854 192.804 115.254 192.86 115.646 192.86C116.542 192.86 116.99 192.624 116.99 192.152C116.99 191.928 116.874 191.772 116.642 191.684C116.418 191.596 116.054 191.512 115.55 191.432C115.022 191.352 114.59 191.26 114.254 191.156C113.926 191.052 113.638 190.872 113.39 190.616C113.15 190.352 113.03 189.988 113.03 189.524C113.03 188.916 113.282 188.432 113.786 188.072C114.298 187.704 114.986 187.52 115.85 187.52C116.29 187.52 116.73 187.572 117.17 187.676C117.61 187.772 117.97 187.904 118.25 188.072L117.674 189.212C117.13 188.892 116.518 188.732 115.838 188.732C115.398 188.732 115.062 188.8 114.83 188.936C114.606 189.064 114.494 189.236 114.494 189.452C114.494 189.692 114.614 189.864 114.854 189.968C115.102 190.064 115.482 190.156 115.994 190.244C116.506 190.324 116.926 190.416 117.254 190.52C117.582 190.624 117.862 190.8 118.094 191.048C118.334 191.296 118.454 191.648 118.454 192.104C118.454 192.704 118.194 193.184 117.674 193.544C117.154 193.904 116.446 194.084 115.55 194.084ZM119.746 187.592H121.246V194H119.746V187.592ZM120.502 186.536C120.23 186.536 120.002 186.452 119.818 186.284C119.634 186.108 119.542 185.892 119.542 185.636C119.542 185.38 119.634 185.168 119.818 185C120.002 184.824 120.23 184.736 120.502 184.736C120.774 184.736 121.002 184.82 121.186 184.988C121.37 185.148 121.462 185.352 121.462 185.6C121.462 185.864 121.37 186.088 121.186 186.272C121.01 186.448 120.782 186.536 120.502 186.536ZM126.154 194.084C125.49 194.084 124.894 193.944 124.366 193.664C123.838 193.384 123.426 192.996 123.13 192.5C122.834 191.996 122.686 191.428 122.686 190.796C122.686 190.164 122.834 189.6 123.13 189.104C123.426 188.608 123.834 188.22 124.354 187.94C124.882 187.66 125.482 187.52 126.154 187.52C126.786 187.52 127.338 187.648 127.81 187.904C128.29 188.16 128.65 188.528 128.89 189.008L127.738 189.68C127.554 189.384 127.322 189.164 127.042 189.02C126.77 188.868 126.47 188.792 126.142 188.792C125.582 188.792 125.118 188.976 124.75 189.344C124.382 189.704 124.198 190.188 124.198 190.796C124.198 191.404 124.378 191.892 124.738 192.26C125.106 192.62 125.574 192.8 126.142 192.8C126.47 192.8 126.77 192.728 127.042 192.584C127.322 192.432 127.554 192.208 127.738 191.912L128.89 192.584C128.642 193.064 128.278 193.436 127.798 193.7C127.326 193.956 126.778 194.084 126.154 194.084ZM125.53 196.736C125.098 196.736 124.73 196.652 124.426 196.484L124.702 195.776C124.95 195.904 125.222 195.968 125.518 195.968C125.942 195.968 126.154 195.824 126.154 195.536C126.154 195.416 126.102 195.32 125.998 195.248C125.894 195.176 125.734 195.14 125.518 195.14H125.146L125.47 193.916H126.286L126.118 194.588C126.462 194.628 126.722 194.736 126.898 194.912C127.074 195.096 127.162 195.324 127.162 195.596C127.162 195.94 127.014 196.216 126.718 196.424C126.422 196.632 126.026 196.736 125.53 196.736ZM132.635 187.52C133.579 187.52 134.299 187.748 134.795 188.204C135.299 188.652 135.551 189.332 135.551 190.244V194H134.135V193.22C133.951 193.5 133.687 193.716 133.343 193.868C133.007 194.012 132.599 194.084 132.119 194.084C131.639 194.084 131.219 194.004 130.859 193.844C130.499 193.676 130.219 193.448 130.019 193.16C129.827 192.864 129.731 192.532 129.731 192.164C129.731 191.588 129.943 191.128 130.367 190.784C130.799 190.432 131.475 190.256 132.395 190.256H134.051V190.16C134.051 189.712 133.915 189.368 133.643 189.128C133.379 188.888 132.983 188.768 132.455 188.768C132.095 188.768 131.739 188.824 131.387 188.936C131.043 189.048 130.751 189.204 130.511 189.404L129.923 188.312C130.259 188.056 130.663 187.86 131.135 187.724C131.607 187.588 132.107 187.52 132.635 187.52ZM132.431 192.992C132.807 192.992 133.139 192.908 133.427 192.74C133.723 192.564 133.931 192.316 134.051 191.996V191.252H132.503C131.639 191.252 131.207 191.536 131.207 192.104C131.207 192.376 131.315 192.592 131.531 192.752C131.747 192.912 132.047 192.992 132.431 192.992ZM133.631 186.716C133.431 186.716 133.255 186.676 133.103 186.596C132.959 186.516 132.779 186.396 132.563 186.236C132.435 186.132 132.327 186.056 132.239 186.008C132.159 185.952 132.079 185.924 131.999 185.924C131.831 185.924 131.691 185.988 131.579 186.116C131.475 186.244 131.419 186.42 131.411 186.644H130.607C130.615 186.156 130.735 185.768 130.967 185.48C131.207 185.184 131.519 185.036 131.903 185.036C132.103 185.036 132.275 185.076 132.419 185.156C132.571 185.236 132.755 185.356 132.971 185.516C133.099 185.62 133.203 185.7 133.283 185.756C133.371 185.804 133.455 185.828 133.535 185.828C133.703 185.828 133.839 185.768 133.943 185.648C134.055 185.528 134.115 185.36 134.123 185.144H134.927C134.911 185.616 134.787 185.996 134.555 186.284C134.323 186.572 134.015 186.716 133.631 186.716ZM140.415 194.084C139.767 194.084 139.183 193.944 138.663 193.664C138.143 193.384 137.735 192.996 137.439 192.5C137.151 191.996 137.007 191.428 137.007 190.796C137.007 190.164 137.151 189.6 137.439 189.104C137.735 188.608 138.143 188.22 138.663 187.94C139.183 187.66 139.767 187.52 140.415 187.52C141.071 187.52 141.659 187.66 142.179 187.94C142.699 188.22 143.103 188.608 143.391 189.104C143.687 189.6 143.835 190.164 143.835 190.796C143.835 191.428 143.687 191.996 143.391 192.5C143.103 192.996 142.699 193.384 142.179 193.664C141.659 193.944 141.071 194.084 140.415 194.084ZM140.415 192.8C140.967 192.8 141.423 192.616 141.783 192.248C142.143 191.88 142.323 191.396 142.323 190.796C142.323 190.196 142.143 189.712 141.783 189.344C141.423 188.976 140.967 188.792 140.415 188.792C139.863 188.792 139.407 188.976 139.047 189.344C138.695 189.712 138.519 190.196 138.519 190.796C138.519 191.396 138.695 191.88 139.047 192.248C139.407 192.616 139.863 192.8 140.415 192.8Z" fill="white"/>
<path d="M56.02 250.484L54.688 251.852V254H53.128V245.6H54.688V249.908L58.84 245.6H60.592L57.064 249.356L60.808 254H58.984L56.02 250.484ZM67.4689 250.832C67.4689 250.936 67.4609 251.084 67.4449 251.276H62.4169C62.5049 251.748 62.7329 252.124 63.1009 252.404C63.4769 252.676 63.9409 252.812 64.4929 252.812C65.1969 252.812 65.7769 252.58 66.2329 252.116L67.0369 253.04C66.7489 253.384 66.3849 253.644 65.9449 253.82C65.5049 253.996 65.0089 254.084 64.4569 254.084C63.7529 254.084 63.1329 253.944 62.5969 253.664C62.0609 253.384 61.6449 252.996 61.3489 252.5C61.0609 251.996 60.9169 251.428 60.9169 250.796C60.9169 250.172 61.0569 249.612 61.3369 249.116C61.6249 248.612 62.0209 248.22 62.5249 247.94C63.0289 247.66 63.5969 247.52 64.2289 247.52C64.8529 247.52 65.4089 247.66 65.8969 247.94C66.3929 248.212 66.7769 248.6 67.0489 249.104C67.3289 249.6 67.4689 250.176 67.4689 250.832ZM64.2289 248.72C63.7489 248.72 63.3409 248.864 63.0049 249.152C62.6769 249.432 62.4769 249.808 62.4049 250.28H66.0409C65.9769 249.816 65.7809 249.44 65.4529 249.152C65.1249 248.864 64.7169 248.72 64.2289 248.72ZM74.7926 247.592L71.7926 254.516C71.5126 255.212 71.1726 255.7 70.7726 255.98C70.3726 256.268 69.8886 256.412 69.3206 256.412C69.0006 256.412 68.6846 256.36 68.3726 256.256C68.0606 256.152 67.8046 256.008 67.6046 255.824L68.2046 254.72C68.3486 254.856 68.5166 254.964 68.7086 255.044C68.9086 255.124 69.1086 255.164 69.3086 255.164C69.5726 255.164 69.7886 255.096 69.9566 254.96C70.1326 254.824 70.2926 254.596 70.4366 254.276L70.5446 254.024L67.7486 247.592H69.3086L71.3246 252.332L73.3526 247.592H74.7926ZM84.6865 254L82.9705 251.54C82.8985 251.548 82.7905 251.552 82.6465 251.552H80.7505V254H79.1905V245.6H82.6465C83.3745 245.6 84.0065 245.72 84.5425 245.96C85.0865 246.2 85.5025 246.544 85.7905 246.992C86.0785 247.44 86.2225 247.972 86.2225 248.588C86.2225 249.22 86.0665 249.764 85.7545 250.22C85.4505 250.676 85.0105 251.016 84.4345 251.24L86.3665 254H84.6865ZM84.6505 248.588C84.6505 248.052 84.4745 247.64 84.1225 247.352C83.7705 247.064 83.2545 246.92 82.5745 246.92H80.7505V250.268H82.5745C83.2545 250.268 83.7705 250.124 84.1225 249.836C84.4745 249.54 84.6505 249.124 84.6505 248.588ZM93.8478 250.832C93.8478 250.936 93.8398 251.084 93.8238 251.276H88.7958C88.8838 251.748 89.1118 252.124 89.4798 252.404C89.8558 252.676 90.3198 252.812 90.8718 252.812C91.5758 252.812 92.1558 252.58 92.6118 252.116L93.4158 253.04C93.1278 253.384 92.7638 253.644 92.3238 253.82C91.8838 253.996 91.3878 254.084 90.8358 254.084C90.1318 254.084 89.5118 253.944 88.9758 253.664C88.4398 253.384 88.0238 252.996 87.7278 252.5C87.4398 251.996 87.2958 251.428 87.2958 250.796C87.2958 250.172 87.4358 249.612 87.7158 249.116C88.0038 248.612 88.3998 248.22 88.9038 247.94C89.4078 247.66 89.9758 247.52 90.6078 247.52C91.2318 247.52 91.7878 247.66 92.2758 247.94C92.7718 248.212 93.1558 248.6 93.4278 249.104C93.7078 249.6 93.8478 250.176 93.8478 250.832ZM90.6078 248.72C90.1278 248.72 89.7198 248.864 89.3838 249.152C89.0558 249.432 88.8558 249.808 88.7838 250.28H92.4198C92.3558 249.816 92.1598 249.44 91.8318 249.152C91.5038 248.864 91.0958 248.72 90.6078 248.72ZM97.2687 254.084C96.7487 254.084 96.2407 254.016 95.7447 253.88C95.2487 253.744 94.8527 253.572 94.5567 253.364L95.1327 252.224C95.4207 252.416 95.7647 252.572 96.1647 252.692C96.5727 252.804 96.9727 252.86 97.3647 252.86C98.2607 252.86 98.7087 252.624 98.7087 252.152C98.7087 251.928 98.5927 251.772 98.3607 251.684C98.1367 251.596 97.7727 251.512 97.2687 251.432C96.7407 251.352 96.3087 251.26 95.9727 251.156C95.6447 251.052 95.3567 250.872 95.1087 250.616C94.8687 250.352 94.7487 249.988 94.7487 249.524C94.7487 248.916 95.0007 248.432 95.5047 248.072C96.0167 247.704 96.7047 247.52 97.5687 247.52C98.0087 247.52 98.4487 247.572 98.8887 247.676C99.3287 247.772 99.6887 247.904 99.9687 248.072L99.3927 249.212C98.8487 248.892 98.2367 248.732 97.5567 248.732C97.1167 248.732 96.7807 248.8 96.5487 248.936C96.3247 249.064 96.2127 249.236 96.2127 249.452C96.2127 249.692 96.3327 249.864 96.5727 249.968C96.8207 250.064 97.2007 250.156 97.7127 250.244C98.2247 250.324 98.6447 250.416 98.9727 250.52C99.3007 250.624 99.5807 250.8 99.8127 251.048C100.053 251.296 100.173 251.648 100.173 252.104C100.173 252.704 99.9127 253.184 99.3927 253.544C98.8727 253.904 98.1647 254.084 97.2687 254.084ZM107.668 247.592V254H106.24V253.184C106 253.472 105.7 253.696 105.34 253.856C104.98 254.008 104.592 254.084 104.176 254.084C103.32 254.084 102.644 253.848 102.148 253.376C101.66 252.896 101.416 252.188 101.416 251.252V247.592H102.916V251.048C102.916 251.624 103.044 252.056 103.3 252.344C103.564 252.624 103.936 252.764 104.416 252.764C104.952 252.764 105.376 252.6 105.688 252.272C106.008 251.936 106.168 251.456 106.168 250.832V247.592H107.668ZM109.632 245.096H111.132V254H109.632V245.096ZM117.27 253.652C117.094 253.796 116.878 253.904 116.622 253.976C116.374 254.048 116.11 254.084 115.83 254.084C115.126 254.084 114.582 253.9 114.198 253.532C113.814 253.164 113.622 252.628 113.622 251.924V248.84H112.566V247.64H113.622V246.176H115.122V247.64H116.838V248.84H115.122V251.888C115.122 252.2 115.198 252.44 115.35 252.608C115.502 252.768 115.722 252.848 116.01 252.848C116.346 252.848 116.626 252.76 116.85 252.584L117.27 253.652ZM120.484 254.084C119.964 254.084 119.456 254.016 118.96 253.88C118.464 253.744 118.068 253.572 117.772 253.364L118.348 252.224C118.636 252.416 118.98 252.572 119.38 252.692C119.788 252.804 120.188 252.86 120.58 252.86C121.476 252.86 121.924 252.624 121.924 252.152C121.924 251.928 121.808 251.772 121.576 251.684C121.352 251.596 120.988 251.512 120.484 251.432C119.956 251.352 119.524 251.26 119.188 251.156C118.86 251.052 118.572 250.872 118.324 250.616C118.084 250.352 117.964 249.988 117.964 249.524C117.964 248.916 118.216 248.432 118.72 248.072C119.232 247.704 119.92 247.52 120.784 247.52C121.224 247.52 121.664 247.572 122.104 247.676C122.544 247.772 122.904 247.904 123.184 248.072L122.608 249.212C122.064 248.892 121.452 248.732 120.772 248.732C120.332 248.732 119.996 248.8 119.764 248.936C119.54 249.064 119.428 249.236 119.428 249.452C119.428 249.692 119.548 249.864 119.788 249.968C120.036 250.064 120.416 250.156 120.928 250.244C121.44 250.324 121.86 250.416 122.188 250.52C122.516 250.624 122.796 250.8 123.028 251.048C123.268 251.296 123.388 251.648 123.388 252.104C123.388 252.704 123.128 253.184 122.608 253.544C122.088 253.904 121.38 254.084 120.484 254.084Z" fill="#2A303A"/>
<path d="M37.7083 247.683C36.2126 247.683 35 248.896 35 250.392C35 251.887 36.2126 253.1 37.7083 253.1C39.2041 253.1 40.4167 251.887 40.4167 250.392C40.4167 248.896 39.2041 247.683 37.7083 247.683ZM37.7083 248.732C38.1283 248.731 38.4698 249.07 38.471 249.49C38.4722 249.91 38.1327 250.252 37.7127 250.253C37.2927 250.254 36.9512 249.915 36.95 249.495C36.95 249.494 36.95 249.493 36.95 249.492C36.95 249.073 37.2892 248.733 37.7083 248.732ZM39.225 251.78H36.1917V251.195C36.1945 251.077 36.2501 250.966 36.3433 250.892C36.5686 250.736 36.8183 250.619 37.0822 250.545C37.2859 250.487 37.4964 250.456 37.7083 250.452C37.9205 250.453 38.1314 250.484 38.3345 250.545C38.6032 250.615 38.8552 250.738 39.0755 250.907C39.1687 250.981 39.2243 251.092 39.2272 251.211L39.225 251.78Z" fill="#2A303A"/>
<path d="M43.4283 246.975L40.7763 248.565C40.9257 248.816 41.045 249.084 41.1316 249.362L43.8638 247.729C43.681 247.501 43.5342 247.247 43.4283 246.975Z" fill="#2A303A"/>
<path d="M46.05 247.9C47.1269 247.9 48 247.027 48 245.95C48 244.873 47.1269 244 46.05 244C44.973 244 44.1 244.873 44.1 245.95C44.1 247.027 44.973 247.9 46.05 247.9Z" fill="#2A303A"/>
<path d="M43.8638 253.059L41.1316 251.412C41.045 251.691 40.9257 251.959 40.7763 252.209L43.4283 253.808C43.5348 253.538 43.6816 253.285 43.8638 253.059Z" fill="#2A303A"/>
<path d="M46.05 256.783C47.1269 256.783 48 255.91 48 254.833C48 253.756 47.1269 252.883 46.05 252.883C44.973 252.883 44.1 253.756 44.1 254.833C44.1 255.91 44.973 256.783 46.05 256.783Z" fill="#2A303A"/>
<path d="M239.295 56V38.4951H244.129C250.298 38.4951 253.382 41.3394 253.382 47.0278C253.382 49.7297 252.523 51.9025 250.806 53.5464C249.097 55.1821 246.806 56 243.934 56H239.295ZM241.346 40.3506V54.1445H243.958C246.253 54.1445 248.039 53.5301 249.317 52.3013C250.595 51.0724 251.233 49.3309 251.233 47.0767C251.233 42.5926 248.849 40.3506 244.08 40.3506H241.346ZM266.102 56H256.824V38.4951H265.711V40.3506H258.875V46.1733H265.198V48.0166H258.875V54.1445H266.102V56ZM281.385 55.2676C280.091 55.9512 278.479 56.293 276.551 56.293C274.061 56.293 272.067 55.4914 270.569 53.8882C269.072 52.285 268.323 50.1813 268.323 47.5771C268.323 44.7777 269.166 42.5153 270.85 40.79C272.535 39.0648 274.671 38.2021 277.259 38.2021C278.919 38.2021 280.294 38.4422 281.385 38.9224V41.1074C280.132 40.4076 278.748 40.0576 277.234 40.0576C275.224 40.0576 273.593 40.729 272.339 42.0718C271.094 43.4146 270.472 45.209 270.472 47.4551C270.472 49.5872 271.054 51.2881 272.217 52.5576C273.389 53.819 274.923 54.4497 276.819 54.4497C278.577 54.4497 280.099 54.0591 281.385 53.2778V55.2676ZM291.321 56.293C288.839 56.293 286.849 55.4751 285.352 53.8394C283.863 52.2036 283.118 50.0755 283.118 47.4551C283.118 44.6393 283.879 42.3932 285.401 40.7168C286.923 39.0404 288.994 38.2021 291.614 38.2021C294.031 38.2021 295.976 39.016 297.449 40.6436C298.93 42.2712 299.671 44.3993 299.671 47.0278C299.671 49.8843 298.914 52.1426 297.4 53.8027C295.887 55.4629 293.86 56.293 291.321 56.293ZM291.468 40.0576C289.629 40.0576 288.135 40.7209 286.988 42.0474C285.84 43.3739 285.267 45.1154 285.267 47.272C285.267 49.4285 285.824 51.166 286.939 52.4844C288.062 53.7946 289.523 54.4497 291.321 54.4497C293.242 54.4497 294.756 53.8231 295.862 52.5698C296.969 51.3166 297.522 49.5628 297.522 47.3086C297.522 44.9974 296.985 43.2111 295.911 41.9497C294.837 40.6883 293.356 40.0576 291.468 40.0576ZM320.96 56H318.921V44.2568C318.921 43.3291 318.978 42.1938 319.092 40.8511H319.043C318.848 41.6405 318.673 42.2061 318.519 42.5479L312.537 56H311.536L305.567 42.6455C305.396 42.2549 305.221 41.6567 305.042 40.8511H304.993C305.058 41.5509 305.091 42.6943 305.091 44.2812V56H303.113V38.4951H305.823L311.194 50.7021C311.609 51.638 311.878 52.3379 312 52.8018H312.073C312.423 51.8415 312.704 51.1253 312.916 50.6533L318.396 38.4951H320.96V56ZM327.625 49.3838V56H325.574V38.4951H330.384C332.256 38.4951 333.704 38.9508 334.729 39.8623C335.763 40.7738 336.28 42.0596 336.28 43.7197C336.28 45.3799 335.706 46.7389 334.559 47.7969C333.419 48.8548 331.877 49.3838 329.932 49.3838H327.625ZM327.625 40.3506V47.5283H329.773C331.189 47.5283 332.268 47.2069 333.008 46.564C333.757 45.9129 334.131 44.9974 334.131 43.8174C334.131 41.5062 332.764 40.3506 330.03 40.3506H327.625ZM346.644 56.293C344.161 56.293 342.172 55.4751 340.674 53.8394C339.185 52.2036 338.44 50.0755 338.44 47.4551C338.44 44.6393 339.201 42.3932 340.723 40.7168C342.245 39.0404 344.316 38.2021 346.937 38.2021C349.354 38.2021 351.299 39.016 352.771 40.6436C354.253 42.2712 354.993 44.3993 354.993 47.0278C354.993 49.8843 354.236 52.1426 352.723 53.8027C351.209 55.4629 349.183 56.293 346.644 56.293ZM346.79 40.0576C344.951 40.0576 343.458 40.7209 342.31 42.0474C341.163 43.3739 340.589 45.1154 340.589 47.272C340.589 49.4285 341.146 51.166 342.261 52.4844C343.384 53.7946 344.845 54.4497 346.644 54.4497C348.564 54.4497 350.078 53.8231 351.185 52.5698C352.291 51.3166 352.845 49.5628 352.845 47.3086C352.845 44.9974 352.308 43.2111 351.233 41.9497C350.159 40.6883 348.678 40.0576 346.79 40.0576ZM357.618 55.292V52.875C357.894 53.1191 358.224 53.3389 358.606 53.5342C358.997 53.7295 359.404 53.8963 359.827 54.0347C360.258 54.1649 360.69 54.2666 361.121 54.3398C361.552 54.4131 361.951 54.4497 362.317 54.4497C363.579 54.4497 364.519 54.2178 365.137 53.7539C365.764 53.2819 366.077 52.6064 366.077 51.7275C366.077 51.2555 365.971 50.8446 365.76 50.4946C365.556 50.1447 365.271 49.8273 364.905 49.5425C364.539 49.2495 364.104 48.9728 363.599 48.7124C363.103 48.4438 362.566 48.1631 361.988 47.8701C361.377 47.5609 360.808 47.2476 360.279 46.9302C359.75 46.6128 359.29 46.2629 358.899 45.8804C358.509 45.4979 358.2 45.0666 357.972 44.5864C357.752 44.0981 357.642 43.5285 357.642 42.8774C357.642 42.0799 357.817 41.3882 358.167 40.8022C358.517 40.2082 358.977 39.7199 359.546 39.3374C360.116 38.9549 360.763 38.6701 361.487 38.4829C362.22 38.2957 362.964 38.2021 363.721 38.2021C365.446 38.2021 366.704 38.4097 367.493 38.8247V41.1318C366.46 40.4157 365.133 40.0576 363.514 40.0576C363.066 40.0576 362.618 40.1064 362.171 40.2041C361.723 40.2936 361.325 40.4442 360.975 40.6558C360.625 40.8674 360.34 41.14 360.12 41.4736C359.9 41.8073 359.791 42.2142 359.791 42.6943C359.791 43.1419 359.872 43.5285 360.035 43.854C360.206 44.1795 360.454 44.4766 360.779 44.7451C361.105 45.0137 361.5 45.2741 361.963 45.5264C362.435 45.7786 362.977 46.0553 363.587 46.3564C364.214 46.6657 364.808 46.9912 365.369 47.333C365.931 47.6748 366.423 48.0532 366.846 48.4683C367.269 48.8833 367.603 49.3431 367.847 49.8477C368.099 50.3522 368.226 50.93 368.226 51.5811C368.226 52.4437 368.055 53.1761 367.713 53.7783C367.379 54.3724 366.924 54.8566 366.346 55.231C365.776 55.6053 365.117 55.8739 364.368 56.0366C363.619 56.2075 362.83 56.293 362 56.293C361.723 56.293 361.382 56.2686 360.975 56.2197C360.568 56.179 360.153 56.1139 359.729 56.0244C359.306 55.943 358.903 55.8413 358.521 55.7192C358.147 55.589 357.846 55.4466 357.618 55.292ZM373.768 56H371.717V38.4951H373.768V56ZM390.296 55.2676C389.002 55.9512 387.391 56.293 385.462 56.293C382.972 56.293 380.978 55.4914 379.48 53.8882C377.983 52.285 377.234 50.1813 377.234 47.5771C377.234 44.7777 378.077 42.5153 379.761 40.79C381.446 39.0648 383.582 38.2021 386.17 38.2021C387.83 38.2021 389.205 38.4422 390.296 38.9224V41.1074C389.043 40.4076 387.659 40.0576 386.146 40.0576C384.135 40.0576 382.504 40.729 381.25 42.0718C380.005 43.4146 379.383 45.209 379.383 47.4551C379.383 49.5872 379.965 51.2881 381.128 52.5576C382.3 53.819 383.834 54.4497 385.73 54.4497C387.488 54.4497 389.01 54.0591 390.296 53.2778V55.2676ZM387.806 59.125C387.806 60.5573 386.687 61.2734 384.449 61.2734C384.139 61.2734 383.875 61.2653 383.655 61.249V60.1504C384.005 60.1992 384.29 60.2236 384.51 60.2236C385.657 60.2236 386.231 59.8574 386.231 59.125C386.231 58.4902 385.706 58.1729 384.656 58.1729C384.575 58.1729 384.408 58.1891 384.156 58.2217V56H385.474V57.2695C386.19 57.2695 386.756 57.4323 387.171 57.7578C387.594 58.0833 387.806 58.5391 387.806 59.125ZM407.41 56H405.14L403.284 51.0928H395.862L394.117 56H391.834L398.548 38.4951H400.672L407.41 56ZM402.613 49.2495L399.866 41.791C399.777 41.5469 399.687 41.1562 399.598 40.6191H399.549C399.467 41.1156 399.374 41.5062 399.268 41.791L396.546 49.2495H402.613ZM403.492 33.9907C403.492 34.8452 403.296 35.5451 402.906 36.0903C402.515 36.6274 401.986 36.896 401.319 36.896C400.741 36.896 400.082 36.6844 399.341 36.2612C398.715 35.9113 398.23 35.7363 397.889 35.7363C397.173 35.7363 396.814 36.1961 396.814 37.1157H395.667C395.667 36.245 395.862 35.5492 396.253 35.0283C396.644 34.4993 397.189 34.2349 397.889 34.2349C398.418 34.2349 399.024 34.4465 399.708 34.8696C400.31 35.2277 400.831 35.4067 401.27 35.4067C401.954 35.4067 402.295 34.9347 402.295 33.9907H403.492ZM416.565 56.293C414.083 56.293 412.094 55.4751 410.596 53.8394C409.107 52.2036 408.362 50.0755 408.362 47.4551C408.362 44.6393 409.123 42.3932 410.645 40.7168C412.167 39.0404 414.238 38.2021 416.858 38.2021C419.275 38.2021 421.22 39.016 422.693 40.6436C424.174 42.2712 424.915 44.3993 424.915 47.0278C424.915 49.8843 424.158 52.1426 422.645 53.8027C421.131 55.4629 419.104 56.293 416.565 56.293ZM416.712 40.0576C414.873 40.0576 413.379 40.7209 412.232 42.0474C411.084 43.3739 410.511 45.1154 410.511 47.272C410.511 49.4285 411.068 51.166 412.183 52.4844C413.306 53.7946 414.767 54.4497 416.565 54.4497C418.486 54.4497 420 53.8231 421.106 52.5698C422.213 51.3166 422.767 49.5628 422.767 47.3086C422.767 44.9974 422.229 43.2111 421.155 41.9497C420.081 40.6883 418.6 40.0576 416.712 40.0576ZM436.829 61.8838H435.022V36.8838H436.829V61.8838Z" fill="white"/>
<line x1="24" y1="329.5" x2="185" y2="329.5" stroke="#2D343F"/>
<path d="M170.912 314.012C170.912 314.012 170.825 314.012 170.912 314.012C170.825 314.012 170.825 314.012 170.912 314.012C170.65 314.012 170.475 314.275 170.212 314.712C169.95 315.15 169.775 315.587 169.775 315.85C169.775 316.112 169.862 316.375 170.125 316.55C170.3 316.725 170.562 316.812 170.912 316.812C171.262 316.812 171.525 316.725 171.7 316.55C171.875 316.375 172.05 316.112 171.962 315.85C171.962 315.587 171.787 315.15 171.525 314.712C171.262 314.275 171.087 314.012 170.912 314.012Z" fill="#82858B"/>
<path d="M172.488 299.225L174.238 297.475L176.688 295.025V292.662L171.963 297.475H162.688V302.2C162.688 303.425 163.213 304.562 164.088 305.35L160.5 309.2V311.562L165.487 306.487L166.713 305.262L172.488 299.225ZM164.438 302.287V299.225H170.213L165.312 304.125C164.787 303.687 164.438 302.987 164.438 302.287Z" fill="#82858B"/>
<path d="M176.6 297.475L174.85 299.225H177.388V302.2C177.388 302.987 177.038 303.775 176.338 304.3L172.488 307.187C172.05 307.537 171.788 308.062 171.788 308.675V312.962H173.538V308.587L177.388 305.7C178.438 304.912 179.138 303.6 179.138 302.2V297.475H176.6Z" fill="#82858B"/>
<path d="M170.037 312.962V308.675C170.037 308.062 169.775 307.537 169.337 307.187L168.025 306.225L166.8 307.537L168.375 308.762V313.05H170.037V312.962Z" fill="#82858B"/>
<path d="M38.912 304.317V307.086H43.306V308.516H38.912V312H37.222V302.9H43.865V304.317H38.912ZM45.4993 302.9H47.1893V312H45.4993V302.9ZM49.6507 302.9H51.3407V310.57H56.0987V312H49.6507V302.9ZM58.4284 304.33H55.4124V302.9H63.1344V304.33H60.1184V312H58.4284V304.33ZM70.3567 312L68.4977 309.335C68.4197 309.344 68.3027 309.348 68.1467 309.348H66.0927V312H64.4027V302.9H68.1467C68.9353 302.9 69.62 303.03 70.2007 303.29C70.79 303.55 71.2407 303.923 71.5527 304.408C71.8647 304.893 72.0207 305.47 72.0207 306.137C72.0207 306.822 71.8517 307.411 71.5137 307.905C71.1843 308.399 70.7077 308.767 70.0837 309.01L72.1767 312H70.3567ZM70.3177 306.137C70.3177 305.556 70.127 305.11 69.7457 304.798C69.3643 304.486 68.8053 304.33 68.0687 304.33H66.0927V307.957H68.0687C68.8053 307.957 69.3643 307.801 69.7457 307.489C70.127 307.168 70.3177 306.718 70.3177 306.137ZM78.1625 312.13C77.2351 312.13 76.3988 311.931 75.6535 311.532C74.9081 311.125 74.3231 310.566 73.8985 309.855C73.4738 309.136 73.2615 308.334 73.2615 307.45C73.2615 306.566 73.4738 305.769 73.8985 305.058C74.3231 304.339 74.9081 303.78 75.6535 303.381C76.3988 302.974 77.2351 302.77 78.1625 302.77C79.0898 302.77 79.9261 302.974 80.6715 303.381C81.4168 303.78 82.0018 304.334 82.4265 305.045C82.8511 305.756 83.0635 306.557 83.0635 307.45C83.0635 308.343 82.8511 309.144 82.4265 309.855C82.0018 310.566 81.4168 311.125 80.6715 311.532C79.9261 311.931 79.0898 312.13 78.1625 312.13ZM78.1625 310.648C78.7691 310.648 79.3151 310.514 79.8005 310.245C80.2858 309.968 80.6671 309.586 80.9445 309.101C81.2218 308.607 81.3605 308.057 81.3605 307.45C81.3605 306.843 81.2218 306.297 80.9445 305.812C80.6671 305.318 80.2858 304.937 79.8005 304.668C79.3151 304.391 78.7691 304.252 78.1625 304.252C77.5558 304.252 77.0098 304.391 76.5245 304.668C76.0391 304.937 75.6578 305.318 75.3805 305.812C75.1031 306.297 74.9645 306.843 74.9645 307.45C74.9645 308.057 75.1031 308.607 75.3805 309.101C75.6578 309.586 76.0391 309.968 76.5245 310.245C77.0098 310.514 77.5558 310.648 78.1625 310.648ZM87.6758 312.13C86.9738 312.13 86.2935 312.03 85.6348 311.831C84.9848 311.632 84.4691 311.367 84.0878 311.038L84.6728 309.725C85.0455 310.02 85.5005 310.262 86.0378 310.453C86.5838 310.635 87.1298 310.726 87.6758 310.726C88.3518 310.726 88.8545 310.618 89.1838 310.401C89.5218 310.184 89.6908 309.898 89.6908 309.543C89.6908 309.283 89.5955 309.071 89.4048 308.906C89.2228 308.733 88.9888 308.598 88.7028 308.503C88.4168 308.408 88.0268 308.299 87.5328 308.178C86.8395 308.013 86.2761 307.849 85.8428 307.684C85.4181 307.519 85.0498 307.264 84.7378 306.917C84.4345 306.562 84.2828 306.085 84.2828 305.487C84.2828 304.984 84.4171 304.529 84.6858 304.122C84.9631 303.706 85.3748 303.377 85.9208 303.134C86.4755 302.891 87.1515 302.77 87.9488 302.77C88.5035 302.77 89.0495 302.839 89.5868 302.978C90.1241 303.117 90.5878 303.316 90.9778 303.576L90.4448 304.889C90.0461 304.655 89.6301 304.477 89.1968 304.356C88.7635 304.235 88.3431 304.174 87.9358 304.174C87.2685 304.174 86.7701 304.287 86.4408 304.512C86.1201 304.737 85.9598 305.036 85.9598 305.409C85.9598 305.669 86.0508 305.881 86.2328 306.046C86.4235 306.211 86.6618 306.341 86.9478 306.436C87.2338 306.531 87.6238 306.64 88.1178 306.761C88.7938 306.917 89.3485 307.082 89.7818 307.255C90.2151 307.42 90.5835 307.675 90.8868 308.022C91.1988 308.369 91.3548 308.837 91.3548 309.426C91.3548 309.929 91.2161 310.384 90.9388 310.791C90.6701 311.198 90.2585 311.523 89.7038 311.766C89.1491 312.009 88.4731 312.13 87.6758 312.13Z" fill="#82858B"/>
<defs>
<linearGradient id="paint0_linear_82_3" x1="237" y1="379.919" x2="1234" y2="379.919" gradientUnits="userSpaceOnUse">
<stop stop-color="#14ACFF"/>
<stop offset="1" stop-color="#8C0AFE"/>
</linearGradient>
</defs>
</svg>
